# xmcd
#
# Track frame offsets:
#	150
#	4382
#	19816
#	40164
#	64694
#	80903
#	111346
#	125242
#	148600
#	184742
#	199731
#
# Disc length: 2948 seconds
#
# Revision: 1
# Processed by: cddbd v1.5.2PL0 Copyright (c) Steve Scherf et al.
# Submitted via: audiograbber 1.83.01
#
DISCID=a20b820b
DTITLE=Der rote Bereich - Live in Montreux
DYEAR=2004
DGENRE=Jazz
TTITLE0=Introduction
TTITLE1=50.000 kleine Wichtigtuer
TTITLE2=Das geht doch nich'
TTITLE3=Berlin Mitte
TTITLE4=Feijoada de chocos
TTITLE5=Chemischer Urlaub
TTITLE6=Short romantic schoolgirl song
TTITLE7=Ein Tag im Leben des jungen L.
TTITLE8=Lizard
TTITLE9=Love me tender
TTITLE10=Lustiger Tiroler
EXTD=Frank Möbus (git), Rudi Mahall (bcl), John Schröder (dr)
EXTT0=
EXTT1=
EXTT2=
EXTT3=
EXTT4=
EXTT5=
EXTT6=
EXTT7=
EXTT8=
EXTT9=
EXTT10=
PLAYORDER=
